<svg xmlns="http://www.w3.org/2000/svg" viewBox="0 0 192 192" width="512" height="512">
  <defs>
    <radialGradient id="ballGrad" cx="38%" cy="32%" r="68%">
      <stop offset="0%" stop-color="#ffffff"/>
      <stop offset="100%" stop-color="#d8d8d8"/>
    </radialGradient>
    <radialGradient id="bgGrad" cx="50%" cy="30%" r="75%">
      <stop offset="0%" stop-color="#1a0707"/>
      <stop offset="100%" stop-color="#09090b"/>
    </radialGradient>
    <clipPath id="bc">
      <circle cx="96" cy="88" r="63"/>
    </clipPath>
    <filter id="bs" x="-15%" y="-15%" width="130%" height="130%">
      <feDropShadow dx="0" dy="4" stdDeviation="7" flood-color="#000" flood-opacity="0.5"/>
    </filter>
  </defs>

  <rect width="192" height="192" rx="40" fill="url(#bgGrad)"/>
  <rect width="192" height="192" rx="40" fill="none" stroke="#dc2626" stroke-width="2.5" opacity="0.28"/>
  <ellipse cx="96" cy="154" rx="52" ry="9" fill="#000" opacity="0.35"/>
  <circle cx="96" cy="88" r="63" fill="url(#ballGrad)" filter="url(#bs)"/>

  <g clip-path="url(#bc)" fill="#909090" opacity="0.75">
    <polygon points="96,30 114,44 108,63 84,63 78,44"/>
    <polygon points="32,70 48,56 78,56 84,73 66,83 37,80"/>
    <polygon points="160,70 144,56 114,56 108,73 126,83 155,80"/>
    <polygon points="34,112 37,88 62,85 68,103 52,118"/>
    <polygon points="158,112 155,88 130,85 124,103 140,118"/>
    <polygon points="96,152 75,133 82,114 110,114 117,133"/>
  </g>

  <ellipse cx="78" cy="69" rx="17" ry="11" fill="white" opacity="0.28" transform="rotate(-28 78 69)"/>

  <text x="96" y="104"
    font-family="Arial Black, Arial, sans-serif"
    font-weight="900"
    font-size="40"
    text-anchor="middle"
    font-style="italic"
    letter-spacing="-1.5">
    <tspan fill="#111111">BET</tspan><tspan fill="#dc2626">62</tspan>
  </text>
</svg>
